<?xml version="1.0" standalone="no"?>
<!DOCTYPE svg PUBLIC "-//W3C//DTD SVG 20010904//EN"
 "http://www.w3.org/TR/2001/REC-SVG-20010904/DTD/svg10.dtd">
<svg version="1.0" xmlns="http://www.w3.org/2000/svg"
 width="64.000000pt" height="64.000000pt" viewBox="0 0 64.000000 64.000000"
 preserveAspectRatio="xMidYMid meet">

<g transform="translate(0.000000,64.000000) scale(0.100000,-0.100000)"
fill="#7a1fd6" stroke="none">
<path d="M29 476 c-13 -29 -14 -38 -2 -59 14 -27 22 -31 88 -42 87 -15 124
-18 205 -18 82 0 108 2 195 17 78 14 85 17 98 42 27 52 -31 122 -70 83 -8 -8
-17 -7 -32 3 -18 11 -26 11 -51 -4 -25 -14 -31 -14 -41 -2 -17 20 -56 17 -79
-6 l-20 -20 -20 20 c-23 23 -62 26 -79 6 -10 -12 -16 -12 -41 2 -25 15 -33 15
-51 4 -15 -10 -24 -11 -32 -3 -22 22 -52 12 -68 -23z m63 7 c21 -19 24 -43 6
-43 -20 1 -60 38 -53 50 9 15 26 12 47 -7z m86 1 c12 -8 22 -24 22 -35 0 -20
-16 -26 -22 -8 -2 6 -16 12 -31 12 -29 2 -35 15 -15 35 15 15 19 15 46 -4z
m112 -4 c11 -11 20 -27 20 -35 0 -18 -4 -19 -30 -3 -16 10 -24 10 -40 0 -18
-11 -20 -10 -20 11 0 46 37 60 70 27z m118 8 c7 -7 12 -22 12 -35 0 -21 -2
-22 -20 -11 -16 10 -24 10 -40 0 -26 -16 -30 -15 -30 3 0 18 35 55 53 55 7 0
18 -5 25 -12z m100 0 c20 -20 14 -33 -15 -35 -15 0 -29 -6 -31 -12 -6 -18 -22
-12 -22 8 0 11 10 27 22 35 27 19 31 19 46 4z m87 2 c7 -12 -33 -49 -52 -50
-18 0 -16 20 4 42 18 20 38 23 48 8z m-490 -80 c0 -18 -25 -24 -45 -10 -13 9
-13 11 0 20 20 14 45 8 45 -10z m475 10 c13 -9 13 -11 0 -20 -28 -18 -60 -4
-45 20 8 13 26 13 45 0z m-380 -21 c0 -17 -5 -20 -37 -17 -20 2 -38 8 -40 14
-2 7 5 10 20 7 14 -3 28 0 31 6 11 18 26 13 26 -10z m266 10 c3 -6 17 -9 31
-6 15 3 22 0 20 -7 -2 -6 -20 -12 -40 -14 -32 -3 -37 0 -37 17 0 23 15 28 26
10z m-201 -12 c6 0 18 4 28 8 13 5 17 2 17 -14 0 -18 -6 -21 -44 -21 -36 0
-45 4 -49 20 -5 18 -2 20 16 14 12 -4 27 -7 32 -7z m110 0 c6 0 20 3 32 7 18
6 21 4 16 -14 -4 -16 -13 -20 -49 -20 -38 0 -44 3 -44 21 0 16 4 19 18 14 9
-4 22 -8 27 -8z"/>
<path d="M58 243 c-12 -25 -11 -32 7 -61 17 -27 25 -32 50 -29 16 3 39 -2 51
-9 17 -12 23 -12 39 0 17 12 23 11 47 -7 27 -20 28 -20 48 -2 19 18 21 18 40
0 20 -18 21 -18 48 2 24 18 30 19 47 7 16 -12 22 -12 39 0 12 7 35 12 51 9 25
-3 33 2 50 29 18 29 19 36 7 61 l-14 28 -116 -7 c-65 -4 -124 -7 -132 -7 -8 0
-67 3 -132 7 l-116 7 -14 -28z m72 -8 c0 -30 -5 -31 -36 -6 -26 21 -22 31 13
31 18 0 23 -5 23 -25z m433 19 c6 -6 -35 -44 -47 -44 -3 0 -6 11 -6 25 0 20 5
25 23 25 13 0 27 -3 30 -6z m-343 -24 c0 -21 -15 -27 -25 -10 -3 6 -15 10 -26
10 -10 0 -19 5 -19 10 0 6 16 10 35 10 28 0 35 -4 35 -20z m88 0 c2 -11 -7
-15 -38 -15 -37 0 -50 11 -33 29 13 12 68 2 71 -14z m100 0 c2 -11 -7 -15 -38
-15 -37 0 -50 11 -33 29 13 12 68 2 71 -14z m82 10 c0 -5 -9 -10 -19 -10 -11
0 -23 -4 -26 -10 -10 -17 -25 -11 -25 10 0 16 7 20 35 20 19 0 35 -4 35 -10z
m-357 -54 c1 -5 -6 -14 -15 -20 -13 -8 -21 -7 -30 2 -10 10 -10 15 2 22 17 11
40 9 43 -4z m416 5 c15 -10 7 -31 -13 -31 -8 0 -19 6 -25 13 -19 23 9 36 38
18z m-329 -10 c0 -15 -29 -33 -45 -27 -20 7 -19 23 3 29 29 8 42 7 42 -2z m85
-20 c-7 -23 -34 -28 -53 -9 -18 18 -14 26 12 21 13 -3 27 0 31 7 11 17 18 4
10 -19z m75 12 c23 6 26 -3 8 -21 -17 -17 -45 -15 -52 4 -11 27 -7 37 9 24 8
-7 24 -10 35 -7z m99 0 c3 -2 -1 -9 -7 -15 -14 -14 -42 -2 -50 21 -3 8 4 10
25 5 15 -4 30 -9 32 -11z"/>
</g>
</svg>
