<?xml version="1.0" standalone="no"?>
<!DOCTYPE svg PUBLIC "-//W3C//DTD SVG 20010904//EN"
 "http://www.w3.org/TR/2001/REC-SVG-20010904/DTD/svg10.dtd">
<svg version="1.0" xmlns="http://www.w3.org/2000/svg"
 width="64.000000pt" height="64.000000pt" viewBox="0 0 64.000000 64.000000"
 preserveAspectRatio="xMidYMid meet">

<g transform="translate(0.000000,64.000000) scale(0.100000,-0.100000)"
fill="#7a1fd6" stroke="none">
<path d="M33 488 c-21 -23 -20 -75 1 -135 14 -39 13 -41 -5 -46 -17 -5 -19
-15 -19 -91 l0 -86 310 0 310 0 0 86 c0 76 -2 86 -19 91 -18 5 -19 7 -5 46 21
60 22 112 1 135 -15 17 -32 19 -130 19 -99 0 -115 -2 -134 -20 l-23 -20 -22
20 c-20 18 -36 20 -135 20 -98 0 -115 -2 -130 -19z m99 3 c23 -5 54 -5 78 1
55 14 90 -8 90 -57 0 -35 0 -35 -44 -35 -30 0 -46 5 -50 15 -3 9 -19 15 -41
15 -24 0 -35 -4 -35 -15 0 -11 -12 -15 -50 -15 -49 0 -50 1 -50 30 0 31 30 70
53 70 6 0 29 -4 49 -9z m338 -4 c8 0 34 3 57 7 35 6 45 4 62 -13 12 -12 21
-34 21 -51 0 -29 -1 -30 -50 -30 -38 0 -50 4 -50 15 0 10 -11 15 -35 15 -24 0
-35 -5 -35 -15 0 -11 -12 -15 -50 -15 -49 0 -50 0 -50 32 0 49 26 71 75 63 22
-4 47 -8 55 -8z m-313 -99 c-3 -8 -6 -5 -6 6 -1 11 2 17 5 13 3 -3 4 -12 1
-19z m30 0 c-3 -8 -6 -5 -6 6 -1 11 2 17 5 13 3 -3 4 -12 1 -19z m283 7 c0 -8
-4 -15 -10 -15 -5 0 -10 7 -10 15 0 8 5 15 10 15 6 0 10 -7 10 -15z m30 0 c0
-8 -4 -15 -10 -15 -5 0 -10 7 -10 15 0 8 5 15 10 15 6 0 10 -7 10 -15z m-370
-25 c0 -5 15 -10 34 -10 19 0 38 5 41 10 3 6 24 10 47 10 37 0 40 -2 33 -22
-17 -58 -25 -96 -25 -125 0 -22 -5 -33 -15 -33 -18 0 -35 31 -35 62 0 13 -5
29 -12 36 -19 19 -56 14 -68 -8 -13 -24 -2 -27 15 -3 18 25 42 9 50 -34 9 -47
21 -63 50 -63 27 0 35 17 35 71 0 39 0 39 39 39 l40 0 3 -52 c3 -48 6 -53 27
-56 30 -5 51 20 51 59 0 31 23 54 45 45 8 -3 15 -18 15 -33 0 -67 72 -102 78
-38 9 101 32 94 32 -11 l0 -74 -290 0 -290 0 0 74 c0 41 5 78 10 81 6 4 10 -8
10 -30 0 -66 38 -98 70 -60 14 17 0 21 -17 4 -19 -19 -33 0 -33 45 0 24 -7 62
-15 85 l-14 41 44 0 c25 0 45 -4 45 -10z m210 -16 c14 -35 14 -34 -20 -34 -16
0 -30 2 -30 4 0 16 21 56 30 56 6 0 15 -12 20 -26z m100 16 c0 -5 16 -10 35
-10 19 0 35 5 35 10 0 6 20 10 45 10 l44 0 -14 -41 c-8 -23 -15 -61 -15 -85 0
-23 -5 -46 -10 -49 -17 -10 -40 15 -40 42 0 37 -18 63 -43 63 -30 0 -47 -18
-47 -48 0 -31 -17 -62 -35 -62 -9 0 -16 18 -20 58 -3 31 -10 67 -16 80 -15 37
-11 42 36 42 25 0 45 -4 45 -10z"/>
<path d="M80 160 c0 -6 35 -10 85 -10 50 0 85 4 85 10 0 6 -35 10 -85 10 -50
0 -85 -4 -85 -10z"/>
</g>
</svg>
