<?xml version="1.0" standalone="no"?>
<!DOCTYPE svg PUBLIC "-//W3C//DTD SVG 20010904//EN"
 "http://www.w3.org/TR/2001/REC-SVG-20010904/DTD/svg10.dtd">
<svg version="1.0" xmlns="http://www.w3.org/2000/svg"
 width="91.000000pt" height="91.000000pt" viewBox="0 0 91.000000 91.000000"
 preserveAspectRatio="xMidYMid meet">

<g transform="translate(0.000000,91.000000) scale(0.100000,-0.100000)"
fill="#7a1fd6" stroke="none">
<path d="M90 681 c-82 -44 -100 -122 -52 -225 18 -39 35 -97 42 -143 13 -97
35 -137 77 -141 40 -4 55 18 79 108 25 99 25 99 40 65 7 -16 13 -44 14 -61 0
-44 19 -93 40 -104 35 -19 90 48 90 110 0 16 4 30 10 30 5 0 7 13 4 30 -5 20
-3 30 6 30 7 0 10 7 6 16 -7 18 3 64 14 64 10 0 38 -93 50 -170 12 -79 35
-114 79 -118 29 -3 33 1 50 40 11 24 25 69 32 102 11 49 15 56 24 42 7 -9 15
-41 19 -71 7 -63 22 -102 43 -109 21 -9 51 11 68 45 9 16 20 27 25 24 13 -8
13 8 -1 22 -12 12 -1 65 12 57 5 -3 9 -1 9 5 0 5 -4 13 -10 16 -5 3 -10 15
-10 27 0 17 2 18 15 8 22 -19 30 -4 13 23 -14 21 -14 27 3 72 11 28 19 72 19
99 0 42 -5 53 -35 83 l-35 35 -88 -3 c-48 -2 -106 1 -129 5 -49 9 -102 -5
-128 -35 -18 -19 -19 -19 -39 0 -28 26 -88 38 -156 30 -30 -3 -68 -2 -85 3
-46 12 -77 10 -115 -11z m165 -46 c39 -14 71 -25 73 -25 8 0 0 29 -10 33 -7 3
8 6 35 6 61 1 87 -22 87 -79 l0 -40 -54 0 c-45 0 -54 3 -59 20 -4 17 -14 20
-70 20 -61 0 -65 -2 -71 -25 -6 -23 -11 -25 -66 -25 l-60 0 0 34 c0 54 50 104
105 105 11 0 52 -11 90 -24z m434 -5 c54 -25 65 -25 58 0 -4 18 0 20 34 20 50
0 89 -35 89 -78 0 -35 -13 -42 -80 -42 -38 0 -49 4 -53 19 -4 15 -16 20 -63
23 -58 4 -89 -5 -78 -23 3 -5 -7 -9 -23 -9 -15 0 -38 -3 -50 -6 -42 -11 -43
56 -3 96 27 27 110 27 169 0z m-399 -120 c0 -16 -7 -20 -35 -20 -28 0 -35 4
-35 20 0 16 7 20 35 20 28 0 35 -4 35 -20z m420 16 c0 -24 -17 -36 -51 -36
-32 0 -39 3 -39 20 0 17 7 20 45 20 25 0 45 -2 45 -4z m-280 -25 c0 -5 -4 -21
-10 -36 -8 -22 -13 -24 -29 -15 -26 13 -31 13 -31 -5 0 -8 9 -19 20 -25 28
-15 26 -40 -1 -33 l-22 6 23 -31 c14 -19 20 -37 16 -48 -6 -16 -9 -16 -16 -4
-5 8 -12 11 -16 8 -4 -4 0 -18 8 -30 16 -24 10 -59 -11 -73 -13 -8 -27 23 -41
95 -14 69 -34 100 -65 100 -30 0 -35 -8 -60 -104 -11 -44 -25 -81 -32 -83 -14
-5 -29 43 -38 117 -4 30 -16 75 -26 99 -10 24 -19 45 -19 47 0 2 23 4 50 4 43
0 50 -3 50 -20 0 -18 7 -20 66 -20 63 0 65 1 75 30 10 28 15 30 60 30 27 0 49
-4 49 -9z m160 -11 c0 -25 29 -40 79 -40 37 0 71 19 71 41 0 5 25 9 56 9 54 0
56 -1 50 -22 -3 -13 -6 -26 -6 -30 0 -3 -10 -4 -22 0 -23 5 -23 5 -4 -16 21
-24 15 -55 -9 -46 -8 3 -15 2 -15 -4 0 -5 7 -12 15 -16 17 -6 21 -56 5 -56 -6
0 -8 -11 -4 -25 7 -28 -22 -83 -37 -68 -4 4 -15 39 -22 76 -8 36 -22 78 -31
92 -32 49 -76 22 -91 -55 -29 -150 -52 -147 -80 13 -8 46 -21 100 -30 120 -8
20 -15 39 -15 42 0 3 20 5 45 5 38 0 45 -3 45 -20z"/>
</g>
</svg>
