<?xml version="1.0" standalone="no"?>
<!DOCTYPE svg PUBLIC "-//W3C//DTD SVG 20010904//EN"
 "http://www.w3.org/TR/2001/REC-SVG-20010904/DTD/svg10.dtd">
<svg version="1.0" xmlns="http://www.w3.org/2000/svg"
 width="64.000000pt" height="64.000000pt" viewBox="0 0 64.000000 64.000000"
 preserveAspectRatio="xMidYMid meet">

<g transform="translate(0.000000,64.000000) scale(0.100000,-0.100000)"
fill="#7a1fd6" stroke="none">
<path d="M133 479 c-42 -21 -73 -66 -73 -108 0 -35 16 -24 29 19 31 105 181
105 212 0 7 -22 15 -40 19 -40 4 0 12 18 19 40 31 105 181 105 212 0 13 -43
29 -54 29 -19 0 42 -31 88 -74 109 -23 11 -50 20 -59 20 -29 0 -83 -26 -106
-51 l-21 -23 -21 23 c-24 25 -78 51 -106 51 -10 0 -37 -9 -60 -21z"/>
<path d="M152 338 c-6 -6 -12 -18 -12 -25 0 -9 -18 -13 -65 -13 -37 0 -65 -4
-65 -10 0 -6 28 -10 63 -10 55 0 63 -3 72 -22 14 -33 86 -33 100 0 9 20 17 22
75 22 58 0 66 -2 75 -22 8 -18 18 -23 50 -23 32 0 42 5 50 23 9 19 17 22 72
22 35 0 63 4 63 10 0 6 -28 10 -63 10 -55 0 -63 3 -72 23 -14 32 -86 32 -100
0 -9 -21 -17 -23 -75 -23 -58 0 -66 2 -75 23 -12 26 -72 36 -93 15z m68 -48
c0 -25 -4 -30 -25 -30 -21 0 -25 5 -25 30 0 25 4 30 25 30 21 0 25 -5 25 -30z
m250 0 c0 -25 -4 -30 -25 -30 -21 0 -25 5 -25 30 0 25 4 30 25 30 21 0 25 -5
25 -30z"/>
<path d="M60 200 c0 -50 32 -62 147 -56 119 6 107 6 226 0 115 -6 147 6 147
56 0 38 -12 38 -27 0 l-11 -30 -97 0 -97 0 -11 30 c-6 17 -14 30 -17 30 -3 0
-11 -13 -17 -30 l-11 -30 -97 0 -97 0 -11 30 c-15 38 -27 38 -27 0z"/>
</g>
</svg>
