<?xml version="1.0" standalone="no"?>
<!DOCTYPE svg PUBLIC "-//W3C//DTD SVG 20010904//EN"
 "http://www.w3.org/TR/2001/REC-SVG-20010904/DTD/svg10.dtd">
<svg version="1.0" xmlns="http://www.w3.org/2000/svg"
 width="64.000000pt" height="64.000000pt" viewBox="0 0 64.000000 64.000000"
 preserveAspectRatio="xMidYMid meet">

<g transform="translate(0.000000,64.000000) scale(0.100000,-0.100000)"
fill="#7a1fd6" stroke="none">
<path d="M168 557 c-54 -28 -79 -63 -85 -121 -5 -38 0 -58 29 -118 19 -40 43
-105 52 -145 19 -75 44 -113 76 -113 29 0 47 37 54 115 7 80 15 115 26 115 11
0 19 -35 26 -115 7 -78 25 -115 54 -115 32 0 57 38 76 113 9 40 33 105 52 145
29 60 34 80 29 118 -6 58 -31 93 -85 121 -36 18 -59 21 -152 21 -93 0 -116 -3
-152 -21z m163 -26 c39 -29 58 -26 29 4 l-23 25 44 0 c56 0 107 -26 136 -69
31 -47 29 -96 -7 -164 -16 -30 -40 -94 -54 -142 -27 -99 -38 -115 -64 -99 -13
8 -19 33 -25 94 -9 92 -21 130 -39 130 -32 -1 -41 -20 -50 -106 -11 -98 -17
-117 -41 -122 -20 -4 -32 18 -57 112 -11 42 -34 103 -51 134 -35 65 -36 124
-2 171 46 62 142 77 204 32z"/>
<path d="M260 410 l0 -60 60 0 60 0 0 60 0 60 -60 0 -60 0 0 -60z m100 0 l0
-40 -40 0 -40 0 0 40 0 40 40 0 40 0 0 -40z"/>
<path d="M310 410 c0 -11 5 -20 10 -20 6 0 10 9 10 20 0 11 -4 20 -10 20 -5 0
-10 -9 -10 -20z"/>
<path d="M110 410 c0 -11 5 -20 10 -20 6 0 10 9 10 20 0 11 -4 20 -10 20 -5 0
-10 -9 -10 -20z"/>
<path d="M160 410 c0 -11 5 -20 10 -20 6 0 10 9 10 20 0 11 -4 20 -10 20 -5 0
-10 -9 -10 -20z"/>
<path d="M210 410 c0 -11 5 -20 10 -20 6 0 10 9 10 20 0 11 -4 20 -10 20 -5 0
-10 -9 -10 -20z"/>
<path d="M410 410 c0 -11 5 -20 10 -20 6 0 10 9 10 20 0 11 -4 20 -10 20 -5 0
-10 -9 -10 -20z"/>
<path d="M460 410 c0 -11 5 -20 10 -20 6 0 10 9 10 20 0 11 -4 20 -10 20 -5 0
-10 -9 -10 -20z"/>
<path d="M510 410 c0 -11 5 -20 10 -20 6 0 10 9 10 20 0 11 -4 20 -10 20 -5 0
-10 -9 -10 -20z"/>
</g>
</svg>
