<?xml version="1.0" standalone="no"?>
<!DOCTYPE svg PUBLIC "-//W3C//DTD SVG 20010904//EN"
 "http://www.w3.org/TR/2001/REC-SVG-20010904/DTD/svg10.dtd">
<svg version="1.0" xmlns="http://www.w3.org/2000/svg"
 width="64.000000pt" height="64.000000pt" viewBox="0 0 64.000000 64.000000"
 preserveAspectRatio="xMidYMid meet">

<g transform="translate(0.000000,64.000000) scale(0.100000,-0.100000)"
fill="#7a1fd6" stroke="none">
<path d="M54 439 c-12 -13 -15 -28 -10 -52 5 -26 2 -38 -14 -52 -16 -15 -20
-31 -20 -87 l0 -68 310 0 310 0 0 68 c0 56 -4 72 -20 87 -16 14 -19 26 -14 52
10 54 -14 72 -95 71 -36 0 -74 -5 -83 -9 -10 -5 -19 -5 -23 0 -7 12 -143 12
-151 0 -3 -5 -13 -5 -23 0 -9 5 -47 9 -83 9 -52 0 -71 -4 -84 -19z m164 -32
c3 -22 -1 -27 -17 -27 -12 0 -30 6 -41 12 -16 10 -24 10 -40 0 -27 -16 -60
-15 -60 2 0 39 10 44 83 42 70 -2 72 -3 75 -29z m174 18 c27 -36 -10 -59 -52
-33 -16 10 -24 10 -40 0 -42 -26 -70 -11 -55 31 7 16 135 19 147 2z m180 0
c27 -36 -10 -59 -52 -33 -16 10 -24 10 -40 0 -33 -20 -60 -15 -60 11 0 13 2
26 5 29 9 9 140 3 147 -7z m-242 -55 c0 -5 -4 -10 -10 -10 -5 0 -10 5 -10 10
0 6 5 10 10 10 6 0 10 -4 10 -10z m-210 -22 c16 -10 24 -10 40 0 33 20 52 16
44 -10 -14 -47 -21 -53 -33 -30 -15 28 -47 28 -62 0 -11 -21 -12 -20 -25 12
-8 18 -14 34 -14 36 0 9 31 3 50 -8z m180 0 c16 -10 24 -10 40 0 33 20 52 16
44 -10 -14 -47 -21 -53 -35 -30 -18 28 -45 28 -60 0 -12 -23 -19 -17 -33 30
-8 26 11 30 44 10z m180 0 c16 -10 24 -10 40 0 19 12 50 17 50 7 0 -2 -5 -16
-12 -30 -13 -28 -26 -32 -34 -10 -9 22 -42 18 -55 -7 -12 -23 -19 -17 -33 30
-8 26 11 30 44 10z m-376 -88 c8 0 17 11 20 25 4 14 10 25 15 25 4 0 13 -11
19 -25 16 -34 29 -31 49 10 9 19 20 35 23 35 3 0 14 -16 23 -35 20 -41 33 -44
49 -10 6 14 15 25 19 25 5 0 11 -11 15 -25 9 -35 31 -31 51 10 9 19 20 35 23
35 3 0 14 -16 23 -35 20 -41 34 -44 47 -10 12 32 28 32 36 0 9 -35 31 -31 51
10 23 49 43 30 43 -41 l0 -54 -290 0 -290 0 0 53 c0 71 18 89 42 42 10 -19 25
-35 32 -35z"/>
</g>
</svg>
