<?xml version="1.0" standalone="no"?>
<!DOCTYPE svg PUBLIC "-//W3C//DTD SVG 20010904//EN"
 "http://www.w3.org/TR/2001/REC-SVG-20010904/DTD/svg10.dtd">
<svg version="1.0" xmlns="http://www.w3.org/2000/svg"
 width="100.000000pt" height="100.000000pt" viewBox="0 0 100.000000 100.000000"
 preserveAspectRatio="xMidYMid meet">

<g transform="translate(0.000000,100.000000) scale(0.100000,-0.100000)"
fill="#7a1fd6" stroke="none">
<path d="M340 840 c-48 -14 -89 -40 -113 -72 -59 -80 -60 -170 -2 -273 20 -36
48 -111 64 -173 32 -122 43 -147 71 -162 27 -14 45 -12 68 8 17 14 23 37 32
132 7 63 16 124 21 137 13 34 36 28 43 -9 7 -40 26 -206 26 -230 0 -25 45 -51
75 -44 36 9 50 37 85 165 18 66 46 142 68 180 33 59 37 73 37 138 0 63 -3 76
-30 115 -17 23 -51 54 -75 68 -42 23 -56 25 -195 26 -82 1 -161 -2 -175 -6z
m138 -25 c20 -9 47 -26 59 -37 13 -12 26 -18 30 -14 5 4 -4 18 -19 31 -15 13
-24 26 -21 29 10 10 95 7 135 -4 74 -21 137 -102 138 -177 l0 -33 -190 0 -190
0 0 34 c0 28 4 35 23 39 19 4 18 4 -5 6 -26 1 -28 -2 -28 -39 0 -34 -3 -40
-22 -41 l-23 -2 23 -4 c18 -4 22 -11 22 -44 l0 -39 90 0 90 0 -1 33 c-2 30 -2
30 -6 5 -4 -28 -5 -28 -84 -28 l-79 0 0 35 0 35 190 0 190 0 -10 -24 c-5 -13
-24 -55 -43 -93 -19 -37 -44 -109 -56 -159 -25 -103 -52 -154 -80 -154 -31 0
-39 21 -51 130 -5 58 -14 118 -18 134 -16 60 -68 60 -84 0 -4 -16 -13 -76 -18
-134 -11 -107 -20 -130 -50 -130 -31 0 -49 34 -79 146 -16 60 -47 147 -70 194
l-42 85 38 6 38 6 -37 2 c-36 1 -38 3 -38 34 0 40 30 105 62 134 52 49 149 65
216 38z"/>
<path d="M333 786 c-48 -22 -40 -26 11 -8 39 14 52 15 93 4 26 -7 58 -23 70
-34 13 -12 26 -19 29 -15 3 3 -12 17 -34 32 -49 32 -124 41 -169 21z"/>
<path d="M639 784 c24 -7 49 -19 57 -25 9 -7 14 -7 14 -1 0 12 -73 42 -98 41
-9 -1 3 -7 27 -15z"/>
<path d="M730 731 c0 -6 4 -13 10 -16 6 -3 7 1 4 9 -7 18 -14 21 -14 7z"/>
<path d="M557 683 c13 -2 24 -13 26 -26 4 -18 5 -17 6 6 1 23 -3 27 -26 26
-23 -1 -24 -2 -6 -6z"/>
<path d="M758 653 c5 -21 7 -23 10 -9 2 10 0 22 -6 28 -6 6 -7 0 -4 -19z"/>
<path d="M440 645 c0 -8 7 -15 15 -15 8 0 15 7 15 15 0 8 -7 15 -15 15 -8 0
-15 -7 -15 -15z"/>
<path d="M530 645 c0 -8 7 -15 15 -15 8 0 15 7 15 15 0 8 -7 15 -15 15 -8 0
-15 -7 -15 -15z"/>
<path d="M318 603 c7 -3 16 -2 19 1 4 3 -2 6 -13 5 -11 0 -14 -3 -6 -6z"/>
<path d="M713 504 c-23 -49 -47 -111 -53 -139 -20 -87 -41 -145 -51 -139 -5 3
-9 -2 -9 -10 0 -21 17 -20 29 2 5 9 21 64 35 121 15 60 40 130 61 168 20 36
34 70 33 75 -2 6 -22 -30 -45 -78z"/>
<path d="M440 565 c0 -8 7 -15 15 -15 8 0 15 7 15 15 0 8 -7 15 -15 15 -8 0
-15 -7 -15 -15z"/>
<path d="M530 565 c0 -8 7 -15 15 -15 8 0 15 7 15 15 0 8 -7 15 -15 15 -8 0
-15 -7 -15 -15z"/>
<path d="M425 470 c-3 -5 -8 -33 -10 -62 -2 -29 -2 -42 1 -28 3 14 9 42 14 63
8 37 6 46 -5 27z"/>
<path d="M392 240 c-5 -22 -6 -40 -2 -40 7 0 22 71 16 77 -2 2 -8 -14 -14 -37z"/>
</g>
</svg>
