<?xml version="1.0" standalone="no"?>
<!DOCTYPE svg PUBLIC "-//W3C//DTD SVG 20010904//EN"
 "http://www.w3.org/TR/2001/REC-SVG-20010904/DTD/svg10.dtd">
<svg version="1.0" xmlns="http://www.w3.org/2000/svg"
 width="100.000000pt" height="100.000000pt" viewBox="0 0 100.000000 100.000000"
 preserveAspectRatio="xMidYMid meet">

<g transform="translate(0.000000,100.000000) scale(0.100000,-0.100000)"
fill="#fbdd23" stroke="none">
<path d="M547 912 l-37 -3 36 -45 c21 -26 34 -50 30 -59 -9 -24 -23 -18 -46
20 -66 106 -223 114 -330 18 -53 -48 -90 -125 -90 -188 l0 -35 134 0 135 0 3
38 3 37 115 0 115 0 3 -37 3 -38 125 0 124 0 0 33 c0 53 -27 129 -60 169 -54
65 -154 99 -263 90z"/>
<path d="M420 600 l0 -60 80 0 80 0 0 60 0 60 -80 0 -80 0 0 -60z m96 9 c10
-17 -13 -36 -27 -22 -12 12 -4 33 11 33 5 0 12 -5 16 -11z"/>
<path d="M120 575 c0 -3 20 -46 45 -95 30 -61 55 -130 74 -209 36 -155 54
-185 109 -189 65 -5 86 22 101 133 17 130 25 160 41 160 11 0 20 -31 35 -120
23 -133 35 -162 69 -171 80 -20 105 12 147 186 19 79 43 149 74 209 25 50 45
93 45 96 0 3 -54 5 -119 5 l-120 0 -3 -37 -3 -38 -115 0 -115 0 -3 38 -3 37
-130 0 c-71 0 -129 -2 -129 -5z"/>
</g>
</svg>
