<?xml version="1.0" encoding="iso-8859-1"?>
<!-- Uploaded to: SVG Repo, www.svgrepo.com, Generator: SVG Repo Mixer Tools -->
<!DOCTYPE svg PUBLIC "-//W3C//DTD SVG 1.1//EN" "http://www.w3.org/Graphics/SVG/1.1/DTD/svg11.dtd">
<svg fill="#fbdd23" version="1.1" id="Capa_1" xmlns="http://www.w3.org/2000/svg" xmlns:xlink="http://www.w3.org/1999/xlink"
	 width="800px" height="800px" viewBox="0 0 45.452 45.453"
	 xml:space="preserve">
<g>
	<g>
		<path d="M24.319,28.267c-0.501-2.017-2.562-3.246-4.579-2.745s-3.262,2.553-2.761,4.567l0.814,3.28
			c0.398,1.602-0.583,3.229-2.184,3.626c-1.603,0.397-3.23-0.581-3.63-2.183L7.419,16.444c-0.5-2.016-2.545-3.25-4.562-2.748
			c-2.016,0.5-3.246,2.548-2.745,4.563l4.564,18.369c1.399,5.634,7.134,9.075,12.768,7.676s9.09-7.124,7.69-12.758L24.319,28.267z
			 M2.421,18.668l2.564-2.435c0.183,0.196,0.319,0.441,0.389,0.72l0.531,2.142L3.17,21.687L2.421,18.668z M4.672,27.731l-0.75-3.018
			l2.735-2.592l0.75,3.017L4.672,27.731z M5.421,30.745l2.735-2.592l0.749,3.018L6.17,33.762L5.421,30.745z M6.943,36.771
			l2.715-2.572l0.278,1.123c0.15,0.604,0.399,1.154,0.729,1.641l-2.398,2.275C7.701,38.511,7.25,37.681,6.943,36.771z
			 M12.912,42.248c-0.798-0.195-1.561-0.509-2.264-0.922l1.632-2.844c0.619,0.369,1.315,0.608,2.047,0.692L12.912,42.248z
			 M20.253,27.587c0.878-0.219,1.771,0.316,1.988,1.195l0.249,1.001l-3.442-0.959C19.177,28.236,19.629,27.742,20.253,27.587z
			 M16.927,42.241c-0.337,0.085-0.674,0.146-1.011,0.186l-0.705-3.228c0.307-0.02,0.616-0.065,0.925-0.143
			c0.449-0.111,0.868-0.279,1.255-0.493l1.064,3.138C17.973,41.924,17.463,42.108,16.927,42.241z M20.7,40.165l-2.481-2.178
			c0.546-0.467,0.988-1.042,1.296-1.684l2.671,1.962C21.784,38.964,21.285,39.605,20.7,40.165z M23.183,35.494l-3.187-0.892
			c0.059-0.569,0.021-1.162-0.124-1.749l-0.291-1.173l3.604,1.006C23.348,33.637,23.34,34.583,23.183,35.494z"/>
		<path d="M44.533,11.812c-1.114-2.429-3.108-4.276-5.612-5.203c-2.506-0.927-5.221-0.824-7.646,0.291
			c-2.429,1.115-4.275,3.109-5.201,5.612c-0.931,2.506-0.826,5.222,0.288,7.648c0.952,2.068,2.545,3.709,4.543,4.726l-4.229,11.417
			c-0.233,0.628,0.087,1.325,0.716,1.557c0.313,0.118,0.645,0.098,0.927-0.033c0.281-0.13,0.515-0.366,0.631-0.682l4.231-11.429
			c2.154,0.506,4.4,0.294,6.443-0.646c2.426-1.114,4.273-3.107,5.201-5.612C45.752,16.954,45.648,14.237,44.533,11.812z
			 M32.032,8.55c1.648-0.758,3.462-0.936,5.203-0.541c-1.334,2.652-1.685,5.311-1.766,6.818c-0.347-0.008-0.678,0.141-0.902,0.403
			c-1.898-2.027-2.763-4.513-3.152-6.359C31.616,8.758,31.819,8.648,32.032,8.55z M28.41,20.153
			c-0.146-0.243-0.277-0.493-0.397-0.754c-0.768-1.67-0.939-3.505-0.526-5.267c2.65,1.401,5.324,1.801,6.803,1.911
			c0.017,0.324,0.173,0.626,0.425,0.835C32.73,18.816,30.269,19.729,28.41,20.153z M38.864,23.418
			c-1.624,0.747-3.404,0.929-5.121,0.559c0-0.074-0.007-0.147-0.02-0.222c1.284-2.627,1.625-5.216,1.707-6.612
			c0.311,0.003,0.604-0.115,0.824-0.328c1.939,1.952,2.873,4.383,3.318,6.235C39.344,23.182,39.108,23.306,38.864,23.418z
			 M43.401,17.874c-2.67-1.343-5.337-1.689-6.804-1.772c0.036-0.344-0.083-0.68-0.317-0.922c1.965-1.937,4.406-2.862,6.238-3.305
			c0.132,0.226,0.252,0.456,0.362,0.695C43.654,14.25,43.826,16.102,43.401,17.874z"/>
		<path d="M4.065,5.551l1.896,0.569C6.019,6.047,6.083,5.977,6.15,5.908l2.281-2.282c0.07-0.067,0.141-0.132,0.215-0.189
			L8.077,1.541c-0.1-0.334-0.367-0.59-0.705-0.675C7.034,0.78,6.677,0.879,6.431,1.125l-2.78,2.781
			c-0.246,0.245-0.346,0.604-0.26,0.94C3.476,5.186,3.731,5.453,4.065,5.551z"/>
		<path d="M16.8,16.96l0.569,1.896c0.101,0.333,0.368,0.589,0.705,0.674c0.338,0.086,0.695-0.012,0.94-0.259l2.781-2.78
			c0.246-0.246,0.345-0.604,0.26-0.941c-0.086-0.337-0.342-0.605-0.676-0.704l-1.896-0.569c-0.057,0.074-0.12,0.146-0.188,0.214
			l-2.281,2.28C16.947,16.839,16.875,16.901,16.8,16.96z"/>
		<path d="M6.968,6.419c-0.51,0.511-0.719,1.227-0.624,1.874h9.62l-1.943-1.942H7.036L6.968,6.419z"/>
		<path d="M12.338,14.945l1.019,1.012c0.862,0.863,2.261,0.865,3.124,0.003l1.019-1.015H12.338z"/>
		<path d="M11.426,14.003h6.984l0.067-0.068c0.512-0.511,0.72-1.168,0.624-1.875H9.483L11.426,14.003z"/>
		<path d="M6.968,9.574l1.605,1.604h10.183c-0.08-0.119-0.173-0.233-0.278-0.339l-1.604-1.604H6.691
			C6.77,9.354,6.863,9.467,6.968,9.574z"/>
		<path d="M13.108,5.468l-1.019-1.021c-0.862-0.862-2.261-0.862-3.124,0.001l-1.019,1.02H13.108z"/>
	</g>
</g>
</svg>
