<?xml version="1.0" encoding="iso-8859-1"?>
<!-- Uploaded to: SVG Repo, www.svgrepo.com, Generator: SVG Repo Mixer Tools -->
<svg fill="#2a88c8" version="1.1" id="Layer_1" xmlns="http://www.w3.org/2000/svg" xmlns:xlink="http://www.w3.org/1999/xlink"
	 viewBox="0 0 512.001 512.001" xml:space="preserve">
<g>
	<g>
		<polygon points="263.353,231.788 263.353,199.315 247.64,199.315 247.64,231.788 216.214,231.788 216.214,247.501 247.64,247.501
			247.64,279.974 263.353,279.974 263.353,247.501 295.826,247.501 295.826,231.788 		"/>
	</g>
</g>
<g>
	<g>
		<rect x="176.412" y="304.064" width="80.659" height="15.713"/>
	</g>
</g>
<g>
	<g>
		<rect x="271.737" y="304.064" width="15.713" height="15.713"/>
	</g>
</g>
<g>
	<g>
		<rect x="295.83" y="304.064" width="15.713" height="15.713"/>
	</g>
</g>
<g>
	<g>
		<rect x="319.923" y="304.064" width="15.713" height="15.713"/>
	</g>
</g>
<g>
	<g>
		<rect x="176.412" y="160.554" width="159.223" height="15.713"/>
	</g>
</g>
<g>
	<g>
		<path d="M346.441,96.056h-19.19V79.75h16.651V0H168.097v79.75h16.691v16.306H165.56c-16.256,0-29.481,13.225-29.481,29.481V482.52
			c0,16.256,13.225,29.481,29.481,29.481h180.882c16.255,0,29.48-13.225,29.48-29.481V125.536
			C375.921,109.281,362.696,96.056,346.441,96.056z M311.539,15.713h16.651v48.324h-16.651V15.713z M263.353,15.713h32.473v48.324
			h-32.473V15.713z M311.539,79.75v16.306H200.501V79.75H311.539z M216.214,15.713h31.426v48.324h-31.426V15.713z M183.81,64.037
			V15.713h16.691v48.324H183.81z M346.441,496.288H165.559c-7.591,0-13.769-6.176-13.769-13.769V343.873h208.417V482.52h0.001
			C360.208,490.112,354.032,496.288,346.441,496.288z M360.208,328.16H151.792V152.177h208.417V328.16z M360.21,136.464h-0.001
			H151.792v-10.928c0-7.592,6.176-13.769,13.769-13.769h180.882c7.591,0,13.768,6.176,13.768,13.769V136.464z"/>
	</g>
</g>
<g>
	<g>
		<rect x="176.412" y="464.335" width="159.223" height="15.713"/>
	</g>
</g>
</svg>
