<?xml version="1.0" standalone="no"?>
<!DOCTYPE svg PUBLIC "-//W3C//DTD SVG 20010904//EN"
 "http://www.w3.org/TR/2001/REC-SVG-20010904/DTD/svg10.dtd">
<svg version="1.0" xmlns="http://www.w3.org/2000/svg"
 width="416.000000pt" height="416.000000pt" viewBox="0 0 416.000000 416.000000"
 preserveAspectRatio="xMidYMid meet">

<g transform="translate(0.000000,416.000000) scale(0.100000,-0.100000)"
fill="#000000" stroke="none">
<path d="M1155 3273 c-94 -11 -221 -52 -307 -99 -31 -16 -42 -18 -33 -4 15 24
-16 7 -44 -25 -17 -19 -32 -34 -33 -33 -3 2 -24 -14 -83 -64 -34 -29 -51 -36
-39 -16 5 7 3 8 -5 4 -19 -12 -81 -149 -81 -178 0 -14 -7 -39 -15 -54 -8 -16
-15 -41 -15 -56 0 -15 -4 -30 -10 -33 -5 -3 -10 -11 -10 -16 0 -6 5 -7 12 -3
8 5 9 0 3 -17 -4 -13 -7 -35 -7 -48 0 -14 -3 -19 -7 -12 -9 14 -32 -30 -30
-57 1 -11 4 -8 10 8 7 20 7 17 4 -15 -3 -22 -7 -62 -10 -90 -8 -74 -24 -177
-31 -202 -4 -13 -2 -23 3 -23 19 0 4 -98 -21 -146 -29 -55 -33 -72 -11 -54 19
16 19 12 -1 -36 l-16 -39 29 26 c36 34 54 21 42 -31 -16 -66 -9 -64 42 13 60
90 184 235 223 260 25 17 26 17 26 -3 0 -11 -18 -39 -40 -62 -22 -24 -40 -49
-40 -56 0 -7 -4 -10 -10 -7 -5 3 -15 -5 -22 -19 -6 -14 -18 -26 -25 -26 -8 0
-12 -4 -8 -9 3 -5 -6 -22 -20 -36 -13 -15 -27 -36 -30 -46 -4 -11 -11 -19 -16
-19 -5 0 -9 -6 -9 -12 1 -13 36 24 80 84 26 36 119 123 105 98 -5 -8 7 1 26
21 20 21 75 56 134 85 55 26 103 53 108 58 5 8 10 7 16 -2 6 -11 9 -9 13 5 3
11 11 20 19 21 8 1 36 6 64 12 66 14 393 13 405 -1 3 -3 43 -14 89 -23 46 -9
140 -36 210 -60 146 -51 271 -93 321 -108 40 -12 103 -39 110 -48 23 -28 208
-106 315 -133 339 -86 688 -12 868 184 136 147 242 277 303 374 17 27 18 28 1
22 -24 -9 -21 3 8 43 28 38 32 48 10 30 -16 -14 -39 -4 -28 13 3 6 -7 1 -24
-11 -48 -34 -57 -26 -23 22 16 25 30 49 30 55 0 5 10 27 22 48 17 29 18 35 5
24 -25 -20 -22 0 10 71 21 48 24 61 13 68 -11 7 -10 15 5 46 11 23 14 39 7 42
-10 3 0 45 20 85 17 35 1 28 -22 -7 -24 -41 -35 -46 -25 -15 5 16 4 19 -5 14
-9 -5 -10 -1 -5 16 6 20 0 17 -37 -19 -24 -23 -47 -40 -51 -36 -3 4 -20 -5
-37 -20 -17 -14 -35 -26 -40 -26 -5 0 -10 -10 -12 -22 -2 -16 -9 -22 -22 -20
-12 2 -16 -1 -10 -9 5 -9 2 -10 -9 -6 -10 4 -29 2 -43 -4 -46 -17 -37 -2 15
27 28 15 51 31 51 36 0 13 -12 10 -48 -12 -18 -11 -46 -20 -62 -20 -16 0 -32
-4 -35 -10 -3 -5 1 -10 10 -10 10 0 15 -7 13 -17 -2 -13 -14 -18 -38 -19 -65
-2 -69 -4 -72 -26 -2 -18 -10 -24 -38 -26 -19 -1 -42 -6 -50 -9 -8 -3 -25 -5
-37 -4 -13 1 -23 -2 -23 -7 0 -6 -29 -10 -67 -10 -70 1 -108 -4 -118 -14 -4
-3 -21 -2 -38 3 -18 4 -51 7 -75 5 -23 -2 -45 1 -48 6 -4 6 -21 7 -39 4 -19
-4 -36 -2 -40 4 -3 5 -22 10 -41 10 -19 0 -34 4 -34 10 0 5 -10 12 -22 14
-191 42 -344 83 -335 92 2 2 66 -12 143 -32 76 -20 164 -37 194 -39 30 -2 103
-6 163 -10 67 -5 107 -4 107 2 0 13 43 9 47 -4 6 -18 43 -2 43 18 0 16 8 18
69 16 38 -1 67 1 64 6 -2 4 10 7 27 7 17 0 29 4 25 9 -3 6 -15 8 -28 5 -12 -2
-62 -4 -112 -4 -49 1 -97 1 -105 1 -91 -4 -269 22 -447 65 -56 14 -225 67
-375 120 -310 108 -449 147 -595 169 -93 14 -261 18 -338 8z m265 -103 c0 -5
-7 -7 -15 -4 -8 4 -12 10 -9 15 6 11 24 2 24 -11z m420 -110 c0 -5 -7 -7 -15
-4 -8 4 -15 8 -15 10 0 2 7 4 15 4 8 0 15 -4 15 -10z m172 -39 c8 -10 22 -21
29 -23 8 -3 12 -8 9 -11 -3 -3 -32 6 -65 19 -40 16 -49 22 -26 18 23 -4 31 -3
27 5 -12 18 8 12 26 -8z m18 -53 c16 -12 28 -23 26 -25 -3 -3 -116 46 -116 51
0 11 66 -8 90 -26z m-652 -528 c188 -20 352 -70 752 -230 324 -129 503 -183
650 -196 82 -8 120 -18 120 -34 0 -11 -52 -10 -61 2 -3 5 -27 10 -55 12 -121
11 -172 18 -207 32 -37 14 -38 14 -32 -6 3 -11 4 -20 2 -20 -10 0 -71 29 -62
30 14 1 -17 20 -33 20 -7 0 -10 -4 -7 -10 8 -12 -13 -12 -40 1 -18 9 -18 9 3
5 19 -4 21 -2 12 10 -9 10 -17 11 -32 3 -25 -13 -52 -4 -44 16 4 11 -2 15 -22
16 -42 1 -95 9 -101 15 -3 3 1 10 9 15 11 8 5 9 -22 5 -31 -4 -40 -1 -48 15
-6 10 -21 19 -33 19 -12 0 -38 8 -57 19 -19 10 -53 21 -75 25 -22 4 -48 15
-57 23 -10 9 -18 13 -18 10 0 -4 -21 2 -47 12 -28 11 -61 16 -80 14 -28 -4
-34 -1 -45 21 -11 25 -15 27 -60 22 -32 -4 -52 -1 -61 8 -8 8 -25 12 -40 9
-16 -3 -27 -1 -27 6 0 5 -7 8 -15 5 -21 -8 -120 17 -105 26 27 17 -10 19 -52
3 -27 -10 -53 -13 -64 -9 -18 8 -18 8 2 16 38 15 38 30 0 30 -28 0 -35 -4 -38
-22 -3 -21 -9 -23 -68 -24 -36 0 -55 1 -42 3 34 6 26 18 -13 20 -20 1 -33 -2
-30 -7 3 -4 -5 -10 -18 -14 -32 -8 -47 -7 -47 4 0 6 7 10 15 10 8 0 15 5 15
11 0 12 -67 7 -103 -7 -9 -3 -17 -2 -17 4 0 6 15 13 33 17 55 11 67 16 62 25
-3 5 21 11 52 15 32 3 67 7 78 9 42 7 79 6 173 -4z m-440 -82 c-6 -18 -48 -30
-48 -14 0 15 14 24 38 25 8 1 12 -4 10 -11z m-91 -44 c-14 -14 -34 -24 -44
-22 -14 3 -10 8 17 25 48 29 58 28 27 -3z m2376 -259 c-26 -19 -113 -48 -120
-41 -3 3 0 8 8 10 8 3 37 14 64 25 62 23 76 25 48 6z m-143 -44 c0 -5 -23 -15
-51 -21 -44 -11 -53 -10 -67 4 -15 15 -15 16 1 16 10 0 15 -4 12 -10 -8 -13
-8 -13 40 5 47 17 65 18 65 6z"/>
</g>
</svg>
