<?xml version="1.0" encoding="utf-8"?>
<!-- Uploaded to: SVG Repo, www.svgrepo.com, Generator: SVG Repo Mixer Tools -->
<!DOCTYPE svg PUBLIC "-//W3C//DTD SVG 1.1//EN" "http://www.w3.org/Graphics/SVG/1.1/DTD/svg11.dtd">
<svg fill="#2a88c8" version="1.1" id="Layer_1" xmlns="http://www.w3.org/2000/svg" xmlns:xlink="http://www.w3.org/1999/xlink"
	 width="800px" height="800px" viewBox="0 0 512 512" enable-background="new 0 0 512 512" xml:space="preserve">
<g>
	<path d="M300.206,113.215c-17.427-6.101-35.944-9.286-54.957-9.286c-44.297,0-85.95,17.242-117.271,48.546
		c-64.652,64.669-64.652,169.888,0,234.541c31.32,31.304,72.974,48.563,117.271,48.563c44.296,0,85.934-17.258,117.254-48.563
		c31.337-31.321,48.579-72.974,48.579-117.271c0-19.19-3.244-37.881-9.463-55.454c0,0-89.718,36.6-95.104,38.808
		c-13.256,5.436-28.35,2.125-38.4-8.053c-9.89-10.014-12.615-25.015-7.186-37.987L300.206,113.215z M144.508,292.008l-1.851,13.932
		c-0.178,1.274-0.844,2.425-1.865,3.204s-2.304,1.119-3.584,0.948l-28.774-3.86c-2.644-0.357-4.492-2.791-4.136-5.433l1.849-13.917
		c0.357-2.645,2.791-4.51,5.434-4.152l28.775,3.843c1.28,0.171,2.432,0.835,3.21,1.857
		C144.345,289.454,144.686,290.734,144.508,292.008z M143.777,228.475c0-17.349,13.413-31.418,29.99-31.418
		c16.56,0,29.975,14.069,29.975,31.418c0,17.338-13.415,31.41-29.975,31.41C157.19,259.884,143.777,245.813,143.777,228.475z
		 M225.135,364.162c0,7.469-6.049,13.52-13.51,13.52h-22.919c-7.46,0-13.511-6.051-13.511-13.52v-22.911
		c0-7.469,6.051-13.52,13.511-13.52h22.919c7.461,0,13.51,6.051,13.51,13.52V364.162z M244.453,156.327l-24.784,16.82
		c-2.271,1.55-5.367,0.957-6.924-1.322l-8.144-11.987c-1.557-2.279-0.957-5.385,1.313-6.933l24.769-16.829
		c1.102-0.746,2.449-1.021,3.746-0.779c1.297,0.251,2.449,1.006,3.195,2.101l8.143,11.994
		C247.325,151.672,246.726,154.779,244.453,156.327z M341.255,290.149l1.914-14.345c0.374-2.726,2.87-4.647,5.612-4.282
		l29.666,3.965c1.313,0.171,2.498,0.86,3.309,1.915c0.795,1.046,1.152,2.375,0.973,3.689l-1.913,14.364
		c-0.178,1.314-0.876,2.498-1.913,3.3c-1.055,0.804-2.386,1.159-3.699,0.981l-29.666-3.975
		C342.795,295.398,340.882,292.883,341.255,290.149z M279.02,282.114c6.504-3.666,14.744-1.364,18.41,5.141l34.402,61.035
		c1.75,3.123,2.205,6.813,1.232,10.268c-0.957,3.455-3.261,6.383-6.375,8.142l-22.076,12.434
		c-6.504,3.666-14.743,1.362-18.409-5.143l-34.402-61.036c-1.753-3.13-2.206-6.819-1.232-10.276
		c0.956-3.455,3.261-6.381,6.374-8.142L279.02,282.114z"/>
	<path d="M432.417,201.725c7.806,21.516,11.884,44.455,11.884,68.021c0,53.169-20.713,103.159-58.312,140.757
		c-37.598,37.582-87.588,58.294-140.74,58.294c-53.169,0-103.159-20.713-140.757-58.294c-77.612-77.596-77.612-203.885,0-281.514
		c37.598-37.582,87.588-58.278,140.757-58.278c23.49,0,46.356,4.046,67.81,11.796L327.8,47.286
		C243.57,16.089,145.176,34.313,77.485,101.99c-92.647,92.665-92.647,242.87,0,335.518c92.665,92.641,242.846,92.641,335.511,0
		c67.646-67.647,85.888-165.988,54.75-250.2L432.417,201.725z"/>
	<path d="M504.995,124.926c-22.399-49.3-61.57-91.091-113.718-115.916c-1.363-0.648-2.847-0.977-4.327-0.977
		c-1.216,0-2.433,0.219-3.588,0.661c-2.579,0.989-4.64,2.976-5.71,5.523l-86.079,205.669c-0.292,0.697-0.13,1.5,0.39,2.036
		c0.36,0.361,0.839,0.551,1.325,0.551c0.235,0,0.476-0.044,0.701-0.138l205.637-83.914c2.547-1.03,4.542-3.058,5.563-5.604
		C506.195,130.271,506.131,127.416,504.995,124.926z M365.683,165.639c0,2.757-2.239,4.988-4.996,4.988h-14.485
		c-2.756,0-4.995-2.231-4.995-4.988v-29.958c0-2.759,2.239-4.988,4.995-4.988h14.485c2.757,0,4.996,2.229,4.996,4.988V165.639z
		 M389.396,81.707c0-12.188,8.579-22.067,19.139-22.067c10.591,0,19.14,9.879,19.14,22.067c0,12.198-8.549,22.083-19.14,22.083
		C397.976,103.791,389.396,93.905,389.396,81.707z M440.7,133.726c-0.245,1.297-1.007,2.448-2.093,3.196l-24.768,16.82
		c-1.088,0.746-2.434,1.021-3.73,0.777c-1.299-0.25-2.45-1.005-3.195-2.1l-8.128-11.995c-1.556-2.271-0.956-5.376,1.313-6.917
		l24.753-16.82c2.271-1.549,5.368-0.957,6.927,1.322l8.142,11.979C440.667,131.081,440.942,132.428,440.7,133.726z"/>
</g>
</svg>
